<svg width="32" height="32" viewBox="0 0 32 32" fill="none" xmlns="http://www.w3.org/2000/svg">
<path d="M15.7533 4.88741L8.53388 0.660907C8.03389 0.368198 7.40496 0.728784 7.40496 1.30815V17.8472C7.40496 18.1181 7.25889 18.3679 7.02284 18.5008L1.12757 21.8191C0.625439 22.1017 0.616345 22.8215 1.11117 23.1168L15.6157 31.7707C15.8524 31.912 16.1476 31.912 16.3843 31.7707L31.6343 22.672C31.8611 22.5367 32 22.292 32 22.0279V10.0675C32 9.48383 31.3626 9.12385 30.8627 9.42527L20.9908 15.3779C20.7657 15.5137 20.6281 15.7573 20.6281 16.0202V19.1219C20.6281 19.7028 21.26 20.0631 21.76 19.7674L26.7689 16.8041C27.2689 16.5083 27.9008 16.8687 27.9008 17.4496V19.9949C27.9008 20.2677 27.7527 20.519 27.5141 20.6511L16.3804 26.8146C16.1451 26.9449 15.8582 26.9392 15.6282 26.7997L9.49559 23.0802C9.02005 22.7918 9.01286 22.1042 9.48226 21.8059L11.2886 20.658C11.5052 20.5203 11.6364 20.2816 11.6364 20.025V8.71747C11.6364 8.13496 12.2714 7.77481 12.7713 8.07382L15.7472 9.85377C15.9843 9.99556 16.2801 9.99556 16.5172 9.85377L19.4931 8.07382C19.993 7.77481 20.6281 8.13496 20.6281 8.71747V11.5787C20.6281 12.1626 21.2659 12.5225 21.7657 12.2207L22.7438 11.6303L24.4971 10.5717C24.722 10.4359 24.8595 10.1924 24.8595 9.92965V1.30815C24.8595 0.728782 24.2306 0.368197 23.7306 0.660906L16.5111 4.88741C16.2771 5.02442 15.9873 5.02442 15.7533 4.88741Z" fill="url(#paint0_angular_2852_786)"/>
<defs>
<radialGradient id="paint0_angular_2852_786" cx="0" cy="0" r="1" gradientUnits="userSpaceOnUse" gradientTransform="translate(19.0805 14.4561) rotate(-25.3054) scale(33.82 38.9059)">
<stop stop-color="#4C5B92"/>
<stop offset="0.494952" stop-color="#A8D0E6"/>
<stop offset="1" stop-color="#F79090"/>
</radialGradient>
</defs>
</svg>
