<svg width="21" height="24" viewBox="0 0 21 24" fill="none" xmlns="http://www.w3.org/2000/svg">
<path d="M19.6666 24H10.6666C10.4014 24 10.1471 23.8946 9.95952 23.7071C9.77198 23.5196 9.66663 23.2652 9.66663 23V21C9.66663 20.7348 9.77198 20.4804 9.95952 20.2929C10.1471 20.1054 10.4014 20 10.6666 20H19.6666C19.9318 20 20.1862 20.1054 20.3737 20.2929C20.5613 20.4804 20.6666 20.7348 20.6666 21V23C20.6666 23.2652 20.5613 23.5196 20.3737 23.7071C20.1862 23.8946 19.9318 24 19.6666 24Z" fill="#A8D0E6"/>
<path d="M19.6666 0H1.66663C1.40141 0 1.14705 0.105356 0.959518 0.292892C0.771982 0.480429 0.666626 0.734784 0.666626 1V3C0.666626 3.26522 0.771982 3.51957 0.959518 3.70711C1.14705 3.89464 1.40141 4 1.66663 4H19.6666C19.9318 4 20.1862 3.89464 20.3737 3.70711C20.5613 3.51957 20.6666 3.26522 20.6666 3V1C20.6666 0.734784 20.5613 0.480429 20.3737 0.292892C20.1862 0.105356 19.9318 0 19.6666 0Z" fill="#F76C6C"/>
<path d="M19.6666 6H1.66663C1.40141 6 1.14705 6.10536 0.959518 6.29289C0.771982 6.48043 0.666626 6.73478 0.666626 7V17C0.666626 17.2652 0.771982 17.5196 0.959518 17.7071C1.14705 17.8946 1.40141 18 1.66663 18H19.6666C19.9318 18 20.1862 17.8946 20.3737 17.7071C20.5613 17.5196 20.6666 17.2652 20.6666 17V7C20.6666 6.73478 20.5613 6.48043 20.3737 6.29289C20.1862 6.10536 19.9318 6 19.6666 6Z" fill="#374785"/>
</svg>
