<svg width="24" height="25" viewBox="0 0 24 25" fill="none" xmlns="http://www.w3.org/2000/svg">
<path d="M23.6 1.7C23.4 1.5 23 1.5 22.7 1.5L17 3.2V23.3L23.3 21.5C23.7 21.4 24 21 24 20.5V2.5C24 2.2 23.9 1.9 23.6 1.7Z" fill="#A8D0E6"/>
<path d="M15 3.2002L9 1.7002V21.8002L15 23.3002V3.2002Z" fill="#F76C6C"/>
<path d="M7 1.7002L0.700001 3.50019C0.300001 3.70019 0 4.10019 0 4.50019V22.5002C0 22.8002 0.0999996 23.1002 0.4 23.3002C0.6 23.4002 0.8 23.5002 1 23.5002H1.3L7 21.8002V1.7002Z" fill="#374785"/>
</svg>
