<svg width="24" height="25" viewBox="0 0 24 25" fill="none" xmlns="http://www.w3.org/2000/svg">
<path d="M9 10.5H2C1.73478 10.5 1.48043 10.3946 1.29289 10.2071C1.10536 10.0196 1 9.76522 1 9.5V2.5C1 2.23478 1.10536 1.98043 1.29289 1.79289C1.48043 1.60536 1.73478 1.5 2 1.5H9C9.26522 1.5 9.51957 1.60536 9.70711 1.79289C9.89464 1.98043 10 2.23478 10 2.5V9.5C10 9.76522 9.89464 10.0196 9.70711 10.2071C9.51957 10.3946 9.26522 10.5 9 10.5Z" fill="#374785"/>
<path d="M9 23.5H2C1.73478 23.5 1.48043 23.3946 1.29289 23.2071C1.10536 23.0196 1 22.7652 1 22.5V15.5C1 15.2348 1.10536 14.9804 1.29289 14.7929C1.48043 14.6054 1.73478 14.5 2 14.5H9C9.26522 14.5 9.51957 14.6054 9.70711 14.7929C9.89464 14.9804 10 15.2348 10 15.5V22.5C10 22.7652 9.89464 23.0196 9.70711 23.2071C9.51957 23.3946 9.26522 23.5 9 23.5Z" fill="#374785"/>
<path d="M13 2.5H23V4.5H13V2.5Z" fill="#F76C6C"/>
<path d="M23 15.5H13V17.5H23V15.5Z" fill="#F76C6C"/>
<path d="M23 20.5H13V22.5H23V20.5Z" fill="#A8D0E6"/>
<path d="M23 7.5H13V9.5H23V7.5Z" fill="#A8D0E6"/>
</svg>
