<svg width="24" height="25" viewBox="0 0 24 25" fill="none" xmlns="http://www.w3.org/2000/svg">
<path d="M5 1.5H2C1.73478 1.5 1.48043 1.60536 1.29289 1.79289C1.10536 1.98043 1 2.23478 1 2.5V22.5C1 22.7652 1.10536 23.0196 1.29289 23.2071C1.48043 23.3946 1.73478 23.5 2 23.5H5V1.5Z" fill="#A8D0E6"/>
<path d="M7 23.5H17V1.5H7V23.5ZM12 19.5C11.7348 19.5 11.4804 19.3946 11.2929 19.2071C11.1054 19.0196 11 18.7652 11 18.5C11 18.2348 11.1054 17.9804 11.2929 17.7929C11.4804 17.6054 11.7348 17.5 12 17.5C12.2652 17.5 12.5196 17.6054 12.7071 17.7929C12.8946 17.9804 13 18.2348 13 18.5C13 18.7652 12.8946 19.0196 12.7071 19.2071C12.5196 19.3946 12.2652 19.5 12 19.5ZM12 5.5C12.2652 5.5 12.5196 5.60536 12.7071 5.79289C12.8946 5.98043 13 6.23478 13 6.5C13 6.76522 12.8946 7.01957 12.7071 7.20711C12.5196 7.39464 12.2652 7.5 12 7.5C11.7348 7.5 11.4804 7.39464 11.2929 7.20711C11.1054 7.01957 11 6.76522 11 6.5C11 6.23478 11.1054 5.98043 11.2929 5.79289C11.4804 5.60536 11.7348 5.5 12 5.5ZM12 11.5C12.2652 11.5 12.5196 11.6054 12.7071 11.7929C12.8946 11.9804 13 12.2348 13 12.5C13 12.7652 12.8946 13.0196 12.7071 13.2071C12.5196 13.3946 12.2652 13.5 12 13.5C11.7348 13.5 11.4804 13.3946 11.2929 13.2071C11.1054 13.0196 11 12.7652 11 12.5C11 12.2348 11.1054 11.9804 11.2929 11.7929C11.4804 11.6054 11.7348 11.5 12 11.5Z" fill="#374785"/>
<path d="M22 1.5H19V23.5H22C22.2652 23.5 22.5196 23.3946 22.7071 23.2071C22.8946 23.0196 23 22.7652 23 22.5V2.5C23 2.23478 22.8946 1.98043 22.7071 1.79289C22.5196 1.60536 22.2652 1.5 22 1.5Z" fill="#F76C6C"/>
</svg>
