<svg width="40" height="40" viewBox="0 0 40 40" fill="none" xmlns="http://www.w3.org/2000/svg">
<path d="M38.3333 10V3.33335C38.3333 2.89133 38.1577 2.4674 37.8451 2.15484C37.5326 1.84228 37.1086 1.66669 36.6666 1.66669H3.33329C2.89126 1.66669 2.46734 1.84228 2.15478 2.15484C1.84222 2.4674 1.66663 2.89133 1.66663 3.33335V10H38.3333Z" fill="#F76C6C"/>
<path d="M1.66663 13.3334V36.6667C1.66663 37.1087 1.84222 37.5327 2.15478 37.8452C2.46734 38.1578 2.89126 38.3334 3.33329 38.3334H11.6666V13.3334H1.66663Z" fill="#A8D0E6"/>
<path d="M15 38.3334H36.6667C37.1087 38.3334 37.5326 38.1578 37.8452 37.8452C38.1577 37.5327 38.3333 37.1087 38.3333 36.6667V13.3334H15V38.3334Z" fill="#374785"/>
</svg>
