<svg width="41" height="40" viewBox="0 0 41 40" fill="none" xmlns="http://www.w3.org/2000/svg">
<g clip-path="url(#clip0_2858_1516)">
<path d="M30.6666 16.6667H40.6666L35.6666 10L30.6666 16.6667ZM30.6666 23.3333H40.6666L35.6666 30L30.6666 23.3333Z" fill="#A8D0E6"/>
<path d="M2.33329 0H12.3333V40H2.33329C1.89127 40 1.46734 39.8244 1.15478 39.5118C0.842219 39.1993 0.666626 38.7754 0.666626 38.3333V1.66667C0.666626 1.22464 0.842219 0.800715 1.15478 0.488154C1.46734 0.175593 1.89127 0 2.33329 0Z" fill="#374785"/>
<path d="M15.6666 0H25.6666C26.1087 0 26.5326 0.175593 26.8451 0.488154C27.1577 0.800715 27.3333 1.22464 27.3333 1.66667V38.3333C27.3333 38.7754 27.1577 39.1993 26.8451 39.5118C26.5326 39.8244 26.1087 40 25.6666 40H15.6666V0Z" fill="#F76C6C"/>
</g>
<defs>
<clipPath id="clip0_2858_1516">
<rect width="40" height="40" fill="white" transform="translate(0.666626)"/>
</clipPath>
</defs>
</svg>
