<svg width="41" height="40" viewBox="0 0 41 40" fill="none" xmlns="http://www.w3.org/2000/svg">
<g clip-path="url(#clip0_2858_1597)">
<path d="M19.3436 0.219975L1.31031 8.64498C1.18836 8.7009 1.08505 8.79069 1.01268 8.90366C0.940308 9.01663 0.901925 9.14801 0.9021 9.28218C0.902276 9.41634 0.941001 9.54762 1.01367 9.6604C1.08633 9.77318 1.18988 9.8627 1.31198 9.91831L19.487 18.2816C20.0236 18.5283 20.6436 18.5283 21.1803 18.2816L39.3553 9.91831C39.4775 9.86286 39.5812 9.77348 39.654 9.66079C39.7268 9.54811 39.7657 9.41688 39.766 9.28271C39.7664 9.14855 39.7282 9.01711 39.6559 8.90405C39.5837 8.79098 39.4805 8.70106 39.3587 8.64498L21.3236 0.219975C21.0137 0.0751315 20.6758 6.10352e-05 20.3336 6.10352e-05C19.9915 6.10352e-05 19.6536 0.0751315 19.3436 0.219975Z" fill="#374785"/>
<path opacity="0.64" d="M39.3584 19.4599L35.6334 17.7199C35.3666 17.5953 35.0759 17.5303 34.7814 17.5294C34.487 17.5286 34.1959 17.5919 33.9284 17.7149L21.18 23.5816C20.9145 23.7037 20.6257 23.7669 20.3334 23.7669C20.0411 23.7669 19.7523 23.7037 19.4867 23.5816L6.73671 17.7149C6.46944 17.5921 6.17864 17.5289 5.8845 17.5298C5.59036 17.5307 5.29993 17.5956 5.03338 17.7199L1.30838 19.4599C1.1865 19.516 1.08331 19.606 1.01109 19.719C0.938862 19.8321 0.900652 19.9635 0.901003 20.0977C0.901355 20.2318 0.940252 20.3631 1.01307 20.4758C1.08588 20.5885 1.18955 20.6778 1.31172 20.7333L19.4867 29.0949C19.7521 29.2177 20.041 29.2813 20.3334 29.2813C20.6258 29.2813 20.9147 29.2177 21.18 29.0949L39.355 20.7333C39.4772 20.6778 39.5809 20.5885 39.6537 20.4758C39.7265 20.3631 39.7654 20.2318 39.7658 20.0977C39.7661 19.9635 39.7279 19.8321 39.6557 19.719C39.5835 19.606 39.4803 19.516 39.3584 19.4599Z" fill="#A8D0E6"/>
<path d="M39.3584 30.18L35.6334 28.44C35.3666 28.3153 35.0759 28.2503 34.7814 28.2495C34.487 28.2486 34.1959 28.3119 33.9284 28.435L21.1801 34.3C20.9145 34.4221 20.6257 34.4853 20.3334 34.4853C20.0411 34.4853 19.7523 34.4221 19.4867 34.3L6.73673 28.4333C6.46946 28.3105 6.17866 28.2473 5.88451 28.2482C5.59037 28.249 5.29994 28.3139 5.0334 28.4383L1.3084 30.18C1.18699 30.2363 1.08426 30.3262 1.01238 30.4391C0.9405 30.5519 0.902484 30.6831 0.902834 30.8169C0.903185 30.9507 0.94189 31.0816 1.01436 31.1941C1.08683 31.3066 1.19003 31.396 1.31173 31.4516L19.4867 39.815C20.0234 40.0616 20.6434 40.0616 21.1801 39.815L39.3551 31.4516C39.4768 31.396 39.58 31.3066 39.6524 31.1941C39.7249 31.0816 39.7636 30.9507 39.764 30.8169C39.7643 30.6831 39.7263 30.5519 39.6544 30.4391C39.5825 30.3262 39.4798 30.2363 39.3584 30.18Z" fill="#F76C6C"/>
</g>
<defs>
<clipPath id="clip0_2858_1597">
<rect width="40" height="40" fill="white" transform="translate(0.333374)"/>
</clipPath>
</defs>
</svg>
